<?xml version="1.0" encoding="utf-8"?>
<!-- Uploaded to: SVG Repo, www.svgrepo.com, Generator: SVG Repo Mixer Tools -->
<svg fill="#000000" height="800px" width="800px" version="1.1" id="Layer_1" xmlns="http://www.w3.org/2000/svg" xmlns:xlink="http://www.w3.org/1999/xlink" 
	 viewBox="0 0 128 128" xml:space="preserve">
<path d="M122.6,108.3c-2.6,0-5-0.6-7.2-1.6c-2.3-1.1-4.8-1.7-7.4-1.7c-2.6,0-5.2,0.6-7.4,1.7c-2.2,1-4.7,1.6-7.2,1.6
	c-2.5,0-5-0.6-7.2-1.6c-2.3-1.1-4.8-1.7-7.4-1.7c-2.7,0-5.2,0.6-7.4,1.7c-2.2,1-4.7,1.6-7.2,1.6c-2.6,0-5-0.6-7.2-1.6
	c-2.3-1.1-4.8-1.7-7.4-1.7c-2.6,0-5.2,0.6-7.4,1.7c-2.2,1-4.7,1.6-7.2,1.6s-5-0.6-7.2-1.6c-2.2-1.1-4.8-1.7-7.4-1.7
	c-2.6,0-5.2,0.6-7.4,1.7c-2.2,1-4.7,1.6-7.2,1.6V97.5c2.5,0,5-0.6,7.2-1.6c2.2-1,4.8-1.7,7.4-1.7c2.6,0,5.2,0.6,7.4,1.7
	c2.2,1,4.7,1.6,7.2,1.6s5-0.6,7.2-1.6c2.2-1,4.8-1.7,7.4-1.7c2.6,0,5.2,0.6,7.4,1.7c2.2,1,4.6,1.6,7.2,1.6c2.5,0,5-0.6,7.2-1.6
	c2.2-1,4.8-1.7,7.4-1.7c2.6,0,5.2,0.6,7.4,1.7c2.2,1,4.7,1.6,7.2,1.6c2.6,0,5-0.6,7.2-1.6c2.2-1,4.8-1.7,7.4-1.7
	c2.6,0,5.2,0.6,7.4,1.7c2.2,1,4.6,1.6,7.2,1.6V108.3z"/>
<path d="M68.3,63.2L57.7,38l10.7-4.5l-2.7-6.6l-7.2,3c0,0-1.4,0.6-3.5,1.5l-5.3-12.6l-6.6,2.7l5.3,12.7C42.8,36.5,37,39,37,39
	l2.8,6.6l11.4-4.8l10.6,25.2C40,75.1,18.7,84.1,20,84.1c2.6,0,5.2,0.6,7.4,1.7c2.2,1,4.7,1.6,7.2,1.6c2.5,0,5-0.6,7.2-1.6
	c2.2-1,4.8-1.7,7.4-1.7c2.6,0,5.2,0.6,7.5,1.7c2.2,1,4.6,1.6,7.2,1.6c2.6,0,5-0.6,7.2-1.6c2.2-1,4.8-1.7,7.5-1.7
	c2.6,0,5.2,0.6,7.4,1.7c2.2,1,4.7,1.6,7.2,1.6c0.7,0,1.4-0.1,2.1-0.2c1.3-0.3,2.6-0.4,3.9-0.9c0,0,0.1,0,0.1,0c2.3-13,7.7-39,7.7-39
	S88.4,54.8,68.3,63.2"/>
</svg>