<?xml version="1.0" encoding="iso-8859-1"?>
<!-- Uploaded to: SVG Repo, www.svgrepo.com, Generator: SVG Repo Mixer Tools -->
<svg fill="#000000" height="800px" width="800px" version="1.1" id="Layer_1" xmlns="http://www.w3.org/2000/svg" xmlns:xlink="http://www.w3.org/1999/xlink" 
	 viewBox="0 0 512 512" xml:space="preserve">
<g>
	<g>
		<path d="M439.168,494.207c-3.807-57.747-57.394-106.435-133.081-121.873V200.348h83.478c9.223,0,16.696-7.477,16.696-16.696
			V116.87c0-9.217-7.473-16.696-16.696-16.696h-83.478V16.696C306.087,7.479,298.614,0,289.391,0h-66.783
			c-9.223,0-16.696,7.479-16.696,16.696v83.478h-83.478c-9.223,0-16.696,7.479-16.696,16.696v66.783
			c0,9.217,7.473,16.696,16.696,16.696h83.478v171.986C130.226,387.772,76.639,436.46,72.832,494.207
			c-0.305,4.609,1.314,9.141,4.468,12.511c3.157,3.369,7.57,5.283,12.189,5.283H422.51c4.619,0,9.032-1.913,12.19-5.283
			C437.853,503.348,439.472,498.816,439.168,494.207z M139.131,166.957v-33.391h83.478c9.223,0,16.696-7.477,16.696-16.696V33.391
			h33.391v83.478c0,9.217,7.473,16.696,16.696,16.696h83.478v33.391h-83.478c-9.223,0-16.696,7.479-16.696,16.696v184.184
			c-11.13-0.71-22.261-0.711-33.391,0V183.652c0-9.217-7.473-16.696-16.696-16.696H139.131z M109.848,478.609
			c36.717-103.266,255.626-103.158,292.304,0H109.848z"/>
	</g>
</g>
</svg>